<svg width="11" height="20" viewBox="0 0 11 20" fill="none" xmlns="http://www.w3.org/2000/svg">
<path d="M9.77618 1.92308H7.33333V1C7.33333 0.787424 7.15109 0.66686 6.92593 0.66686L4.07407 0.666861C3.84889 0.666861 3.66667 0.787424 3.66667 1V1.92308H1.2238C0.549053 1.92308 0 2.43953 0 3.07392V18.8495C0 19.4839 0.549053 20 1.2238 20H9.77618C10.4509 20 11 19.4839 11 18.8495V3.07392C11 2.43953 10.4509 1.92308 9.77618 1.92308ZM5 2H5.5H6.5H4.5H5ZM10.1852 18.8495C10.1852 19.0599 10.0018 19.2308 9.77618 19.2308H1.2238C0.998219 19.2308 0.814815 19.0599 0.814815 18.8495V3.07392C0.814815 2.85985 0.994634 2.69231 1.2238 2.69231H4.07407H6.92593H9.77618C10.0018 2.69231 10.1852 2.86358 10.1852 3.07392V18.8495Z" fill="white"/>
<path d="M1.5 3.96875C1.5 3.5 1.5 3.5 1.94444 3.5H9.05556C9.5 3.5 9.5 3.5 9.5 3.96875V18.0312C9.5 18.5 9.5 18.5 9.05556 18.5H1.94444C1.5 18.5 1.5 18.5 1.5 18.0312V3.96875Z" fill="white" fill-opacity="0.99"/>
<path d="M1.5 3.96875C1.5 3.5 1.5 3.5 1.94444 3.5M1.5 3.96875C1.5 4.4375 1.5 17.5625 1.5 18.0312M1.5 3.96875V18.0312M1.94444 3.5C2.38889 3.5 8.61111 3.5 9.05556 3.5M1.94444 3.5H9.05556M9.05556 3.5C9.5 3.5 9.5 3.5 9.5 3.96875M9.5 3.96875C9.5 4.4375 9.5 17.5625 9.5 18.0312M9.5 3.96875V18.0312M9.5 18.0312C9.5 18.5 9.5 18.5 9.05556 18.5M9.05556 18.5C8.61111 18.5 2.38889 18.5 1.94444 18.5M9.05556 18.5H1.94444M1.94444 18.5C1.5 18.5 1.5 18.5 1.5 18.0312" stroke="white" stroke-width="0.5"/>
</svg>
