<svg width="36" height="30" viewBox="0 0 36 30" fill="none" xmlns="http://www.w3.org/2000/svg">
<path d="M18.0422 4.613C17.7722 4.613 17.5042 4.505 17.3072 4.292C16.9322 3.886 16.9582 3.253 17.3642 2.879C20.4422 0.0349979 27.1582 0.396998 30.1832 2.025C30.6692 2.287 30.8512 2.893 30.5892 3.379C30.3272 3.866 29.7202 4.048 29.2352 3.786C26.8222 2.486 21.0302 2.217 18.7202 4.348C18.5272 4.525 18.2842 4.613 18.0422 4.613Z" fill="#C2C2C2"/>
<path d="M18.0414 4.613C17.7994 4.613 17.5564 4.525 17.3634 4.347C15.0534 2.215 9.26136 2.486 6.84936 3.785C6.36036 4.046 5.75636 3.864 5.49536 3.378C5.23436 2.892 5.41536 2.285 5.90136 2.024C8.92636 0.395 15.6424 0.036 18.7204 2.878C19.1264 3.252 19.1514 3.885 18.7774 4.291C18.5794 4.505 18.3114 4.613 18.0414 4.613Z" fill="#C2C2C2"/>
<path d="M1.7519 29.229C1.4209 29.229 1.0979 29.066 0.907903 28.766C0.610903 28.3 0.747903 27.682 1.2139 27.385C5.5859 24.601 15.4629 25.04 18.6049 27.433C19.0439 27.767 19.1299 28.395 18.7949 28.834C18.4599 29.273 17.8349 29.359 17.3939 29.024C14.8529 27.091 5.8519 26.802 2.2879 29.072C2.1219 29.178 1.9359 29.229 1.7519 29.229Z" fill="#C2C2C2"/>
<path d="M1.73227 8.02099C1.37627 8.02099 1.03127 7.83099 0.851271 7.49599C0.589271 7.00999 0.771271 6.403 1.25727 6.141C2.49827 5.473 4.33727 5.026 6.30127 4.915C6.86427 4.88 7.32527 5.305 7.35627 5.856C7.38727 6.407 6.96527 6.87899 6.41427 6.91099C4.75627 7.00499 3.18227 7.37599 2.20527 7.90199C2.05427 7.98299 1.89227 8.02099 1.73227 8.02099Z" fill="#C2C2C2"/>
<path d="M18.0422 24.708C17.7722 24.708 17.5042 24.6 17.3072 24.387C16.9322 23.981 16.9582 23.348 17.3642 22.974C20.4432 20.131 27.1592 20.492 30.1832 22.12C30.6692 22.383 30.8512 22.989 30.5892 23.475C30.3272 23.96 29.7202 24.142 29.2352 23.881C26.8222 22.581 21.0312 22.312 18.7202 24.443C18.5272 24.62 18.2842 24.708 18.0422 24.708Z" fill="#C2C2C2"/>
<path d="M18.0408 24.708C17.7988 24.708 17.5558 24.62 17.3628 24.442C15.0518 22.31 9.26183 22.581 6.84883 23.88C6.36283 24.141 5.75683 23.959 5.49483 23.474C5.23283 22.988 5.41482 22.381 5.90082 22.119C8.92582 20.49 15.6408 20.131 18.7198 22.973C19.1258 23.347 19.1508 23.98 18.7768 24.386C18.5788 24.6 18.3108 24.708 18.0408 24.708Z" fill="#C2C2C2"/>
<path d="M18 29.229C17.448 29.229 17 28.782 17 28.229V3.53C17 2.977 17.448 2.53 18 2.53C18.552 2.53 19 2.977 19 3.53V28.228C19 28.781 18.552 29.229 18 29.229Z" fill="#C2C2C2"/>
<path d="M29.75 23.863C29.198 23.863 28.75 23.416 28.75 22.863C28.75 18.888 28.738 14.788 28.726 11.078C28.717 8.01 28.708 5.208 28.708 2.964C28.708 2.411 29.156 1.964 29.708 1.964C30.26 1.964 30.708 2.411 30.708 2.964C30.708 5.206 30.716 8.006 30.726 11.071C30.738 14.784 30.75 18.886 30.75 22.863C30.75 23.416 30.302 23.863 29.75 23.863Z" fill="#C2C2C2"/>
<path d="M6.39552 23.863C5.84352 23.863 5.39552 23.416 5.39552 22.863C5.39552 18.888 5.38252 14.788 5.37152 11.078C5.36252 8.01 5.35352 5.208 5.35352 2.964C5.35352 2.411 5.80152 1.964 6.35352 1.964C6.90552 1.964 7.35352 2.411 7.35352 2.964C7.35352 5.206 7.36252 8.006 7.37152 11.071C7.38252 14.784 7.39552 18.886 7.39552 22.863C7.39552 23.416 6.94752 23.863 6.39552 23.863Z" fill="#C2C2C2"/>
<path d="M1.75099 29.229C1.19899 29.229 0.750985 28.782 0.750985 28.229C0.750985 24.254 0.738985 19.807 0.726985 15.783C0.717985 12.455 0.708984 9.417 0.708984 7.173C0.708984 6.62 1.15698 6.173 1.70898 6.173C2.26098 6.173 2.70898 6.62 2.70898 7.173C2.70898 9.415 2.71698 12.452 2.72698 15.777C2.73898 19.803 2.75098 24.253 2.75098 28.229C2.75098 28.781 2.30399 29.229 1.75099 29.229Z" fill="#C2C2C2"/>
<path d="M34.248 29.229C34.064 29.229 33.878 29.178 33.712 29.073C30.148 26.803 21.147 27.093 18.606 29.025C18.167 29.36 17.539 29.274 17.205 28.835C16.871 28.396 16.956 27.768 17.395 27.434C20.538 25.043 30.412 24.601 34.786 27.386C35.252 27.683 35.389 28.301 35.092 28.767C34.901 29.065 34.578 29.229 34.248 29.229Z" fill="#C2C2C2"/>
<path d="M34.249 29.229C33.697 29.229 33.249 28.782 33.249 28.229C33.249 24.252 33.261 19.803 33.273 15.777C33.282 12.452 33.291 9.415 33.291 7.173C33.291 6.62 33.739 6.173 34.291 6.173C34.843 6.173 35.291 6.62 35.291 7.173C35.291 9.417 35.283 12.455 35.273 15.783C35.261 19.807 35.249 24.255 35.249 28.229C35.249 28.781 34.801 29.229 34.249 29.229Z" fill="#C2C2C2"/>
<path d="M34.2683 8.17201C34.1083 8.17201 33.9463 8.134 33.7953 8.053C32.8833 7.561 31.4153 7.198 29.8683 7.08C29.3173 7.038 28.9053 6.558 28.9473 6.007C28.9893 5.456 29.4613 5.037 30.0203 5.086C31.8593 5.226 33.5813 5.665 34.7443 6.291C35.2303 6.554 35.4123 7.16 35.1503 7.646C34.9693 7.981 34.6243 8.17201 34.2683 8.17201Z" fill="#C2C2C2"/>
<path d="M22.2505 8.25999C21.8555 8.25999 21.4825 8.02599 21.3245 7.63799C21.1155 7.12599 21.3615 6.54299 21.8725 6.33399C22.9535 5.89399 24.4605 5.86799 25.6215 6.27299C26.1425 6.45599 26.4175 7.02499 26.2365 7.54599C26.0545 8.06799 25.4845 8.34399 24.9625 8.16099C24.2625 7.91599 23.2585 7.92799 22.6285 8.18399C22.5045 8.23599 22.3765 8.25999 22.2505 8.25999Z" fill="#C2C2C2"/>
<path d="M22.2505 12.278C21.8555 12.278 21.4825 12.044 21.3245 11.656C21.1155 11.144 21.3615 10.561 21.8725 10.352C22.9525 9.912 24.4585 9.888 25.6215 10.292C26.1425 10.475 26.4175 11.044 26.2365 11.565C26.0545 12.087 25.4845 12.363 24.9625 12.18C24.2615 11.936 23.2585 11.945 22.6285 12.202C22.5045 12.255 22.3765 12.278 22.2505 12.278Z" fill="#C2C2C2"/>
<path d="M22.2505 16.641C21.8555 16.641 21.4825 16.407 21.3245 16.019C21.1155 15.507 21.3615 14.924 21.8725 14.715C22.9525 14.274 24.4585 14.25 25.6215 14.655C26.1425 14.838 26.4175 15.407 26.2365 15.928C26.0545 16.45 25.4845 16.725 24.9625 16.543C24.2615 16.299 23.2585 16.309 22.6285 16.565C22.5045 16.617 22.3765 16.641 22.2505 16.641Z" fill="#C2C2C2"/>
<path d="M10.688 8.225C10.293 8.225 9.91999 7.99101 9.76199 7.60301C9.55299 7.09101 9.79899 6.508 10.31 6.299C11.391 5.859 12.898 5.83301 14.059 6.23801C14.58 6.42101 14.855 6.99 14.674 7.511C14.492 8.033 13.924 8.309 13.4 8.126C12.701 7.882 11.697 7.893 11.066 8.149C10.942 8.201 10.813 8.225 10.688 8.225Z" fill="#C2C2C2"/>
<path d="M10.688 12.244C10.293 12.244 9.91999 12.01 9.76199 11.622C9.55299 11.11 9.79899 10.527 10.31 10.318C11.391 9.87701 12.898 9.85201 14.059 10.257C14.58 10.44 14.855 11.009 14.674 11.53C14.492 12.052 13.924 12.329 13.4 12.145C12.701 11.9 11.697 11.912 11.066 12.168C10.942 12.221 10.813 12.244 10.688 12.244Z" fill="#C2C2C2"/>
<path d="M10.688 16.605C10.293 16.605 9.91999 16.371 9.76199 15.983C9.55299 15.471 9.79899 14.888 10.31 14.679C11.39 14.239 12.896 14.214 14.059 14.619C14.58 14.802 14.855 15.371 14.674 15.892C14.492 16.414 13.924 16.689 13.4 16.507C12.7 16.263 11.696 16.273 11.066 16.529C10.942 16.582 10.813 16.605 10.688 16.605Z" fill="#C2C2C2"/>
</svg>
