<svg width="18" height="17" viewBox="0 0 18 17" fill="none" xmlns="http://www.w3.org/2000/svg">
<path fill-rule="evenodd" clip-rule="evenodd" d="M9.00029 15.587C10.1183 14.481 12.1803 12.453 12.9183 11.716L13.2343 11.4C14.1453 10.485 14.9243 9.688 15.5693 9.007C17.4363 7.032 17.4633 4.137 15.7293 2.312C14.0603 0.555998 11.3883 0.563999 9.72929 2.329L9.00029 3.104L8.27129 2.329C6.61229 0.563999 3.93929 0.555998 2.27129 2.312C0.537285 4.136 0.564286 7.032 2.43129 9.007C3.07529 9.688 3.85429 10.486 4.76629 11.4L5.08329 11.717C5.82729 12.461 7.88429 14.483 9.00029 15.587V15.587Z" stroke="white" stroke-width="2"/>
</svg>
