<svg width="3" height="15" viewBox="0 0 3 15" fill="none" xmlns="http://www.w3.org/2000/svg">
<path d="M0 12.648C0 13.4751 0.672896 14.148 1.5 14.148C2.3271 14.148 3 13.4751 3 12.648C3 11.8209 2.3271 11.148 1.5 11.148C0.672896 11.148 0 11.8209 0 12.648Z" fill="white"/>
<path d="M0 7.28667C0 8.11378 0.672896 8.78667 1.5 8.78667C2.3271 8.78667 3 8.11378 3 7.28667C3 6.45957 2.3271 5.78667 1.5 5.78667C0.672896 5.78667 0 6.45957 0 7.28667Z" fill="white"/>
<path d="M0 1.92598C0 2.75308 0.672896 3.42598 1.5 3.42598C2.3271 3.42598 3 2.75308 3 1.92598C3 1.09888 2.3271 0.42598 1.5 0.42598C0.672896 0.42598 0 1.09888 0 1.92598Z" fill="white"/>
</svg>
